<svg viewBox="0 0 728 419" fill="none" xmlns="http://www.w3.org/2000/svg">
<path d="M420.32 101.976L403.597 144.5C401.394 150.1 418.597 141.5 429.597 143.5C438.597 144.5 448.097 151.5 463.097 150.5C482.316 149.219 493.811 134.778 496.867 126.61C497.34 125.346 496.24 124.201 494.905 124.402C485.258 125.855 475.146 126.922 459.597 110C443.31 92.2766 429.056 94.7597 422.793 98.7277C421.613 99.4749 420.831 100.676 420.32 101.976Z" fill="white"/>
<path d="M224.811 10L225.025 10.0078C248.425 10.8435 264.593 18.2068 275.118 29.0713C285.453 39.7415 289.045 52.4492 290.03 61.7344C294.304 102.031 259.547 138.699 217.18 131.846C210.638 130.787 206.192 124.626 207.25 118.084C208.309 111.542 214.471 107.096 221.013 108.154C246.646 112.301 268.89 89.9692 266.163 64.2656C265.553 58.5062 263.394 51.4631 257.879 45.7695C252.573 40.2917 242.844 34.701 224.385 34.001C213.713 34.0107 202.38 34.7668 190.672 39.2168C179.048 43.6353 166.307 51.9893 153.569 68.3672L153.445 68.5273L153.316 68.6826C149.128 73.7076 139.496 91.0314 141.544 112.88C142.988 128.275 149.152 147.236 165.884 164.788L166.689 165.623L166.73 165.665L166.771 165.708C177.547 176.981 202.696 204.818 213.866 223.291C231.895 253.109 232.34 286.056 226.222 309.974C221.022 330.301 209.11 364.997 166.751 390.302C125.132 415.165 84.6252 411.795 52.1029 396.912C27.2662 385.546 8.37442 358.215 10.1107 322.91L10.1166 322.809L10.1234 322.707C11.1819 306.734 17.6829 284.269 33.2934 265.108C49.2199 245.56 74.2606 229.948 110.966 228.017C117.584 227.668 123.232 232.751 123.58 239.369C123.929 245.987 118.845 251.635 112.227 251.983C82.4327 253.552 63.6398 265.858 51.8998 280.268C39.8767 295.025 34.8731 312.505 34.0775 324.198C32.8573 349.836 46.381 367.899 62.0902 375.088C88.5678 387.205 120.607 389.912 154.443 369.698C189.084 349.003 198.531 321.383 202.971 304.026C207.853 284.944 207.344 258.891 193.328 235.709C183.697 219.782 160.313 193.685 149.422 182.292V182.291C127.824 160.097 119.555 135.454 117.649 115.12C114.915 85.9618 127.235 62.6023 134.73 53.4971C149.961 33.9593 166.183 22.8507 182.146 16.7832C197.986 10.7626 212.831 9.99998 224.597 10H224.811Z" fill="white"/>
<path d="M324.984 106.469C327.487 100.332 334.491 97.3863 340.628 99.8887C346.765 102.391 349.71 109.395 347.208 115.531L284.208 270.031L284.147 270.183L284.08 270.333C280.852 277.669 277.897 288.411 278.274 297.375C278.458 301.759 279.405 304.904 280.724 306.985C281.866 308.787 283.668 310.439 287.27 311.427C289.81 312.123 293.799 311.896 299.666 309.361C305.435 306.869 311.86 302.633 318.475 297.209C331.537 286.497 343.681 272.527 350.743 263.136C367.378 237.363 379.879 205.728 394.487 169.963C396.993 163.828 403.999 160.885 410.134 163.391C416.269 165.897 419.212 172.902 416.706 179.037C406.704 203.524 397.123 227.603 386.042 249.493C378.192 267.443 374.298 279.461 373.062 287.858C371.885 295.849 373.277 299.308 374.861 301.525C375.926 303.015 377.161 303.75 379.909 303.75C383.23 303.75 387.776 302.53 393.097 300.091C398.743 297.503 412.327 288.168 423.103 269.177L454.014 211.344L454.235 210.928L454.489 210.531C462.802 197.543 478.592 177.526 496.181 167.56C505.241 162.425 514.686 159.801 523.245 159.267C531.49 158.752 540.169 160.126 546.753 164.516C551.687 167.805 559.004 175.304 561.133 186.433C563.45 198.546 559.074 211.789 545.984 224.582C541.244 229.214 533.647 229.127 529.015 224.387C524.383 219.647 524.47 212.05 529.209 207.418C538.118 198.711 537.993 193.204 537.561 190.942C536.94 187.696 534.507 185.195 533.441 184.484C532.747 184.022 529.925 182.896 524.739 183.22C519.868 183.524 513.952 185.075 508.013 188.44C495.728 195.402 482.66 211.133 474.941 223.102L444.18 280.656L444.111 280.785L444.04 280.911C430.824 304.26 413.442 317.168 403.097 321.909C396.418 324.97 388.213 327.75 379.909 327.75C371.032 327.75 361.768 324.485 355.332 315.475C352.254 311.166 350.312 306.47 349.352 301.351C344.471 306.319 339.185 311.263 333.693 315.767C326.137 321.963 317.768 327.684 309.186 331.393C300.702 335.058 290.782 337.277 280.923 334.573C271.775 332.065 264.91 326.865 260.453 319.834C256.174 313.082 254.59 305.415 254.295 298.381C253.717 284.607 257.948 270.201 262.027 260.864L324.984 106.469Z" fill="white"/>
<path d="M655.061 52.7871C657.664 46.6923 664.715 43.8609 670.81 46.4639C676.905 49.0668 679.735 56.1181 677.132 62.2129C663.42 94.3203 634.292 162.977 626.785 182.338C617.287 206.83 604.354 248.401 554.395 291.12C536.295 306.597 519.921 315.782 504.659 319.635C489.199 323.537 475.572 321.785 463.568 316.613C447.104 310.238 440.242 293.835 438.035 279.373C435.744 264.369 437.67 247.547 442.237 234.133C444.372 227.859 451.19 224.505 457.464 226.641C463.738 228.777 467.092 235.594 464.956 241.867C461.523 251.953 460.1 264.881 461.759 275.752C463.434 286.725 467.541 292.217 471.91 294.102L472.333 294.272L472.616 294.379L472.892 294.5C480.323 297.739 488.608 298.934 498.785 296.365C509.272 293.718 522.398 286.903 538.798 272.88C583.724 234.465 594.906 198.17 604.409 173.662C612.101 153.822 641.44 84.6796 655.061 52.7871Z" fill="white"/>
<path d="M350.526 163.014C357.146 162.699 362.768 167.81 363.083 174.43C363.398 181.049 358.287 186.671 351.667 186.986L267.667 190.986C261.047 191.301 255.425 186.19 255.11 179.57C254.795 172.951 259.906 167.329 266.526 167.014L350.526 163.014Z" fill="white"/>
<path d="M654.972 53.501C657.456 47.3571 664.452 44.3903 670.596 46.875C676.74 49.3598 679.706 56.3551 677.222 62.499L634.622 167.831C640.744 163.435 647.314 159.199 653.956 155.811C662.413 151.497 672.074 147.968 681.816 147.86C692.188 147.746 702.227 151.562 709.876 160.891C717.486 170.172 719.503 181.018 716.998 191.561C714.623 201.555 708.391 210.615 700.729 218.205C686.736 232.064 665.531 243.466 642.893 248.893C642.999 249.607 643.146 250.415 643.345 251.315C644.835 258.056 648.502 266.686 653.848 273.615C659.257 280.628 665.167 284.414 670.899 284.935C676.285 285.423 684.978 283.322 696.883 270.749C701.44 265.937 709.035 265.729 713.848 270.286C718.66 274.843 718.867 282.439 714.311 287.251C699.466 302.928 684.033 310.225 668.731 308.837C653.777 307.48 642.436 298.113 634.846 288.274C627.191 278.352 622.108 266.431 619.911 256.498C618.834 251.627 618.25 246.349 618.936 241.61C619.494 237.754 621.995 228.539 631.91 226.701L632.891 226.515C653.442 222.503 672.492 212.393 683.84 201.153C689.614 195.434 692.664 190.155 693.648 186.012C694.503 182.417 693.957 179.328 691.317 176.109C688.717 172.938 685.88 171.817 682.08 171.858C677.651 171.907 671.843 173.629 664.862 177.189C650.901 184.311 636.599 196.447 626.368 205.144C624.053 207.112 620.194 212.146 615.26 220.584C612.699 224.962 610.038 229.923 607.349 235.269L576.722 310.999C574.319 316.939 567.674 319.944 561.627 317.824C555.58 315.705 552.265 309.208 554.098 303.068C559.044 286.494 568.514 261.736 578.751 239.411C580.947 234.622 583.195 229.906 585.461 225.374L654.972 53.501Z" fill="white"/>
</svg>
